<svg xmlns="http://www.w3.org/2000/svg" viewBox="0 0 24 24" fill="currentColor">
    <path d="M12.5 1.75a2.25 2.25 0 0 0-4.5 0v5.833a5.234 5.234 0 0 0-1.465.992L4.01 6.05a2.25 2.25 0 0 0-3.182 3.182l2.525 2.525a5.232 5.232 0 0 0 0 7.4a5.232 5.232 0 0 0 7.4 0l8.75-8.75a.75.75 0 0 0-1.06-1.06l-8.75 8.75a3.732 3.732 0 0 1-5.28 0 3.732 3.732 0 0 1 0-5.28l2.525-2.525a2.25 2.25 0 0 0-3.182-3.182l-2.525 2.525a5.232 5.232 0 0 0 0 7.4 5.232 5.232 0 0 0 7.4 0l8.75-8.75a.75.75 0 0 0-1.06-1.06l-8.75 8.75a3.732 3.732 0 0 1-5.28 0 3.732 3.732 0 0 1 0-5.28l2.525-2.525a2.25 2.25 0 0 0-3.182-3.182l-2.525 2.525a5.232 5.232 0 0 0 0 7.4 5.232 5.232 0 0 0 7.4 0l8.75-8.75a.75.75 0 0 0-1.06-1.06L14 16.94l.53-1.06a.75.75 0 0 0-1.06-1.06L13 15.35l-.53-1.06a.75.75 0 0 0-1.06-1.06L11 13.76l-.53-1.06a.75.75 0 0 0-1.06-1.06L9 12.19l-.53-1.06a.75.75 0 0 0-1.06-1.06L7 10.62l-.53-1.06a.75.75 0 1 0-1.06 1.06l.53 1.06L5.47 12.19a.75.75 0 1 0 1.06 1.06l.53-1.06L7.53 12.72a.75.75 0 1 0 1.06 1.06l.53-1.06L9.53 13.25a.75.75 0 1 0 1.06 1.06l.53-1.06l.53 1.06a.75.75 0 1 0 1.06 1.06l.53-1.06.53 1.06a.75.75 0 1 0 1.06 1.06L15.06 15l.53 1.06a.75.75 0 1 0 1.06-1.06L16.12 14l5.63-5.63a2.25 2.25 0 0 0-3.18-3.18L15.95 7.81a5.234 5.234 0 0 0-1.465-.992V1.75a2.25 2.25 0 0 0-2-2z"/>
</svg>
